<svg xmlns="http://www.w3.org/2000/svg" xmlns:xlink="http://www.w3.org/1999/xlink" viewBox="0 0 529.73 444.36"><defs><style>.cls-1{isolation:isolate;}.cls-2{fill:#e1e8ef;}.cls-3{fill:#d1dce5;}.cls-4{fill:#c5d0d8;}.cls-5{fill:#a9b8bf;}.cls-14,.cls-25,.cls-6{fill:#fff;}.cls-6{opacity:0.55;}.cls-7{fill:#ebeff2;}.cls-8{fill:#373449;}.cls-9{fill:#0c2321;}.cls-10{fill:url(#linear-gradient);}.cls-11{fill:url(#linear-gradient-2);}.cls-12{fill:#49c2ff;}.cls-13{opacity:0.56;}.cls-13,.cls-14,.cls-16,.cls-19,.cls-22,.cls-30,.cls-31,.cls-33,.cls-34,.cls-35,.cls-36{mix-blend-mode:soft-light;}.cls-15{fill:url(#linear-gradient-3);}.cls-16{opacity:0.32;}.cls-17{fill:url(#linear-gradient-4);}.cls-18{fill:url(#linear-gradient-5);}.cls-19{opacity:0.53;}.cls-20{fill:url(#linear-gradient-6);}.cls-21{fill:#39a0d9;}.cls-22{opacity:0.54;}.cls-23{fill:url(#linear-gradient-7);}.cls-24{fill:url(#linear-gradient-8);}.cls-26{fill:#d0412b;}.cls-27{fill:#601112;}.cls-28{fill:url(#linear-gradient-9);}.cls-29{fill:#899da5;}.cls-30{fill:url(#linear-gradient-10);}.cls-31{fill:url(#linear-gradient-11);}.cls-32{fill:#a7bac6;}.cls-33{fill:url(#linear-gradient-12);}.cls-34{fill:url(#linear-gradient-13);}.cls-35{fill:url(#linear-gradient-14);}.cls-36{fill:url(#linear-gradient-15);}.cls-37{fill:url(#linear-gradient-16);}.cls-38{fill:url(#linear-gradient-17);}.cls-39{fill:url(#linear-gradient-18);}.cls-40{fill:url(#linear-gradient-19);}.cls-41{fill:url(#linear-gradient-20);}.cls-42{fill:url(#linear-gradient-21);}.cls-43{fill:url(#linear-gradient-22);}.cls-44{fill:url(#linear-gradient-23);}.cls-45{fill:url(#linear-gradient-24);}</style><linearGradient id="linear-gradient" x1="689.3" y1="125.62" x2="722.64" y2="125.62" gradientTransform="matrix(-0.99, 0.14, 0.14, 0.99, 973.17, -82.52)" gradientUnits="userSpaceOnUse"><stop offset="0.11" stop-color="#ffbd95"/><stop offset="0.63" stop-color="#ff9a6a"/><stop offset="0.99" stop-color="#f17954"/></linearGradient><linearGradient id="linear-gradient-2" x1="991.07" y1="106.85" x2="1039.74" y2="106.85" gradientTransform="matrix(-1, 0, 0, 1, 1377.55, 0)" gradientUnits="userSpaceOnUse"><stop offset="0.01" stop-color="#f17954"/><stop offset="0.37" stop-color="#ff9a6a"/><stop offset="0.89" stop-color="#ffbd95"/></linearGradient><linearGradient id="linear-gradient-3" x1="624.79" y1="313.8" x2="674.87" y2="313.8" gradientTransform="translate(-350.18)" gradientUnits="userSpaceOnUse"><stop offset="0" stop-color="#002756"/><stop offset="1" stop-color="#185b8e"/></linearGradient><linearGradient id="linear-gradient-4" x1="565.16" y1="313.06" x2="653.98" y2="313.06" xlink:href="#linear-gradient-3"/><linearGradient id="linear-gradient-5" x1="246.04" y1="149.44" x2="288.1" y2="149.44" gradientTransform="matrix(-1, 0, 0, 1, 593.67, 0)" gradientUnits="userSpaceOnUse"><stop offset="0" stop-color="#49c2ff"/><stop offset="1" stop-color="#a0e0ff"/></linearGradient><linearGradient id="linear-gradient-6" x1="224.06" y1="272.02" x2="339.17" y2="156.91" xlink:href="#linear-gradient-5"/><linearGradient id="linear-gradient-7" x1="328.8" y1="164.99" x2="364.6" y2="164.99" xlink:href="#linear-gradient-5"/><linearGradient id="linear-gradient-8" x1="688.35" y1="94.74" x2="714.87" y2="94.74" xlink:href="#linear-gradient"/><linearGradient id="linear-gradient-9" x1="-776.46" y1="205.21" x2="-669.5" y2="205.21" gradientTransform="translate(1003.07)" xlink:href="#linear-gradient"/><linearGradient id="linear-gradient-10" x1="560.78" y1="337.99" x2="587.78" y2="337.99" gradientUnits="userSpaceOnUse"><stop offset="0"/><stop offset="0.86" stop-opacity="0"/></linearGradient><linearGradient id="linear-gradient-11" x1="587.99" y1="338.56" x2="608.93" y2="338.56" xlink:href="#linear-gradient-10"/><linearGradient id="linear-gradient-12" x1="585.01" y1="327.8" x2="589.56" y2="327.8" xlink:href="#linear-gradient-10"/><linearGradient id="linear-gradient-13" x1="152.46" y1="337.99" x2="179.46" y2="337.99" xlink:href="#linear-gradient-10"/><linearGradient id="linear-gradient-14" x1="179.68" y1="338.56" x2="200.62" y2="338.56" xlink:href="#linear-gradient-10"/><linearGradient id="linear-gradient-15" x1="176.69" y1="327.8" x2="181.24" y2="327.8" xlink:href="#linear-gradient-10"/><linearGradient id="linear-gradient-16" x1="455.4" y1="138.37" x2="484.7" y2="138.37" gradientTransform="matrix(1, 0, 0, 1, 0, 0)" xlink:href="#linear-gradient"/><linearGradient id="linear-gradient-17" x1="452.57" y1="124.14" x2="481.35" y2="124.14" gradientTransform="translate(23.98 -66.66) rotate(7.27)" xlink:href="#linear-gradient"/><linearGradient id="linear-gradient-18" x1="507.31" y1="216.22" x2="545.55" y2="216.22" gradientTransform="matrix(1, 0, 0, 1, 0, 0)" xlink:href="#linear-gradient"/><linearGradient id="linear-gradient-19" x1="1158.19" y1="106.85" x2="1206.87" y2="106.85" gradientTransform="translate(-783.88)" xlink:href="#linear-gradient-2"/><linearGradient id="linear-gradient-20" x1="457.67" y1="313.8" x2="507.74" y2="313.8" gradientTransform="matrix(-1, 0, 0, 1, 943.85, 0)" xlink:href="#linear-gradient-3"/><linearGradient id="linear-gradient-21" x1="398.03" y1="313.06" x2="486.85" y2="313.06" gradientTransform="matrix(-1, 0, 0, 1, 943.85, 0)" xlink:href="#linear-gradient-3"/><linearGradient id="linear-gradient-22" x1="413.17" y1="149.44" x2="455.22" y2="149.44" gradientTransform="matrix(1, 0, 0, 1, 0, 0)" xlink:href="#linear-gradient-5"/><linearGradient id="linear-gradient-23" x1="391.19" y1="272.02" x2="506.3" y2="156.91" gradientTransform="matrix(1, 0, 0, 1, 0, 0)" xlink:href="#linear-gradient-5"/><linearGradient id="linear-gradient-24" x1="495.92" y1="164.99" x2="531.73" y2="164.99" gradientTransform="matrix(1, 0, 0, 1, 0, 0)" xlink:href="#linear-gradient-5"/></defs><g class="cls-1"><g id="Layer_1" data-name="Layer 1"><path class="cls-2" d="M617.39,379.63a192,192,0,0,1-14.87,22.29c-3.38,4.36-6.92,8.62-10.63,12.73C560.1,450,516.74,475,467.76,471.92c-35.26-2.22-64.95-22.44-97.75-33.35-26.74-8.9-53.67-8.12-80.79-1.26-36.53,9.24-85.74,11.91-117.87-11.23-13.87-10-24.19-25.67-25.19-42.73-.07-1.25-.1-2.49-.08-3.72.26-20.7,12.32-39.7,11.38-60.56a46.48,46.48,0,0,0-1.25-8.76c-3-12.61-10.66-24-18.05-35-2.92-4.32-5.78-8.6-8.29-12.87-10.08-17.15-18.4-35.61-19.59-55.74-3.71-63,62.47-104.29,119.65-96.34,15.95,2.21,32,7.81,48.25,5.79.55-.07,1.11-.15,1.65-.24a47.39,47.39,0,0,0,9.76-2.69c11.43-4.45,21-12.9,29.56-21.84a261.61,261.61,0,0,1,35.75-31.7,174.41,174.41,0,0,1,39.9-21.94,141,141,0,0,1,17.89-5.51c25.94-6.17,54.38-5.68,79.69.41a170.47,170.47,0,0,1,21.28,6.65q3.45,1.32,6.89,2.82c1,.41,1.92.84,2.87,1.28,12.82,5.86,25.19,13.51,35,22.87a80,80,0,0,1,9.76,11.1A65,65,0,0,1,571.83,83c14.45,25.12,19.9,58.14,4.46,84.17-7.73,13-1.2,29.6,7.77,40.15,8.64,10.13,20,17.56,29.24,27.15C652.65,275.29,643.32,334.25,617.39,379.63Z" transform="translate(-110.13 -27.82)"/><rect class="cls-3" x="45.2" y="114.49" width="65.88" height="76.71"/><rect class="cls-4" x="48.72" y="118.6" width="58.83" height="68.49"/><rect class="cls-3" x="314.69" y="36.39" width="65.88" height="76.71"/><rect class="cls-4" x="318.21" y="40.5" width="58.83" height="68.49"/><path class="cls-3" d="M289.59,113.21v317h-9.76V115.9A47.39,47.39,0,0,0,289.59,113.21Z" transform="translate(-110.13 -27.82)"/><path class="cls-3" d="M523.42,43.38V430.2h-9.76V39.28q3.45,1.32,6.89,2.82C521.51,42.51,522.47,42.94,523.42,43.38Z" transform="translate(-110.13 -27.82)"/><path class="cls-3" d="M568.19,77.35V430.2h-9.76V66.25A80,80,0,0,1,568.19,77.35Z" transform="translate(-110.13 -27.82)"/><path class="cls-3" d="M412.69,32.22v398H354.9V59.67a174.41,174.41,0,0,1,39.9-21.94A141,141,0,0,1,412.69,32.22Z" transform="translate(-110.13 -27.82)"/><circle class="cls-5" cx="417.55" cy="71" r="27.86"/><circle class="cls-6" cx="417.55" cy="71" r="25.32"/><circle class="cls-7" cx="417.55" cy="71" r="22.74"/><rect class="cls-8" x="416.9" y="49.25" width="1.23" height="4.14" rx="0.55"/><rect class="cls-8" x="416.97" y="88.6" width="1.23" height="4.14" rx="0.55"/><rect class="cls-8" x="546.74" y="96.71" width="1.23" height="4.14" rx="0.55" transform="translate(536 -476.4) rotate(90)"/><rect class="cls-8" x="507.4" y="96.78" width="1.23" height="4.14" rx="0.55" transform="translate(496.73 -436.98) rotate(90)"/><rect class="cls-8" x="541" y="83.48" width="1.23" height="2.71" rx="0.55" transform="translate(108.61 -386.04) rotate(45.02)"/><rect class="cls-8" x="513.24" y="111.17" width="1.23" height="3.06" rx="0.55" transform="translate(120.18 -358.24) rotate(45.02)"/><rect class="cls-8" x="541.05" y="111.41" width="1.23" height="2.71" rx="0.55" transform="translate(894.38 -218.2) rotate(135.02)"/><rect class="cls-8" x="513.19" y="83.48" width="1.23" height="3.06" rx="0.55" transform="translate(827.18 -245.9) rotate(135.02)"/><rect class="cls-5" x="416.86" y="55.76" width="1.35" height="15.58" rx="0.61"/><rect class="cls-5" x="531.91" y="94.09" width="1.35" height="11.18" rx="0.61" transform="translate(522.13 -460.73) rotate(90)"/><circle class="cls-5" cx="417.55" cy="71" r="2.46"/><path class="cls-3" d="M617.39,379.63a192,192,0,0,1-14.87,22.29c-3.38,4.36-6.92,8.62-10.63,12.73C560.1,450,516.74,475,467.76,471.92c-35.26-2.22-64.95-22.44-97.75-33.35-26.74-8.9-53.67-8.12-80.79-1.26-36.53,9.24-85.74,11.91-117.87-11.23-13.87-10-24.19-25.67-25.19-42.73-.07-1.25-.1-2.49-.08-3.72Z" transform="translate(-110.13 -27.82)"/><path class="cls-9" d="M265.91,128.13s1.76-13.74,5.19-24.37c7.9-24.43,33-7.19,33-7.19l1.78,33.31Z" transform="translate(-110.13 -27.82)"/><path class="cls-10" d="M276.73,148.42c1.33,1.79,11.61,3,14.44,3.36,1.1.13,9.69,15.87,10.69,16.37,1.21.63,6.07-20.08,7.4-21.66s0-2.87-1.45-4.31c-.66-.64-9.71-6.77-11-10.65a8.67,8.67,0,0,1-.41-2.9,26.68,26.68,0,0,1,.45-3.87c.08-.54.18-1.06.25-1.58l-2-.53c-3.84-.94-8.68-1.86-12-2.82.71.2.73,7.56.7,8.51a12.07,12.07,0,0,1-.18,1.78,13.83,13.83,0,0,1-.59,2.64,11.69,11.69,0,0,1-1.41,2.91C279.75,138.32,275.56,146.82,276.73,148.42Z" transform="translate(-110.13 -27.82)"/><path class="cls-11" d="M353.33,122.77s12-19.73,17.55-37.27c0,0-3.35-16-2.18-16.57.46-.21.83.64,1.13,1.74.17,2.35.52,4.72.53,4.75a.24.24,0,0,0,.25.22h0a.25.25,0,0,0,.22-.3s-.14-1-.29-2.28c.13-2.78.52-8.19,1.78-8.21,1.69,0,1,6.83,1,6.83l.08-.42c-.17,1.75-.33,3.15-.34,3.18a.27.27,0,0,0,.23.29h0a.27.27,0,0,0,.27-.23c0-.23.51-4.46.7-7.44h0c.76-3.34,1.82-7.26,2.57-7.26.57,0,.59,1.74.42,3.67v0a78.67,78.67,0,0,0-1.6,10.19A.27.27,0,0,0,376,74h0a.26.26,0,0,0,.26-.24s.37-4.32,1.15-8.19a.19.19,0,0,1,0-.07c.66-2.39,1.62-5.31,2.38-5.39,1.31-.12.68,4.85.55,8s-.44,8.75.47,9.67,4.18-3.53,5.5-2.74c.09,0,.13.18.13.36-.06,2.18-7.21,12.84-7.21,12.84s-.56,2.33-1.38,6.61v0s0,0,0,.07c-.12.66-.26,1.36-.4,2.09-2.89,14.37-8.15,33.51-15.53,43.26-2.11,2.77-10.8,11.08-14.77,13.68-.53-1.87-.95-3.59-1.43-5.34-1.28-4.76-2.66-8.07-7.93-16.85A99.88,99.88,0,0,0,353.33,122.77Z" transform="translate(-110.13 -27.82)"/><path class="cls-12" d="M295.61,412.85c1.12.86,3.82,1,6.08.93,1.93,0,3.52-.23,3.52-.23,1.52.52,2.94,1,4.26,1.29.55.16,1.07.29,1.58.39,0,0,.05,0,.07,0a32.13,32.13,0,0,0,3.4.57c5.65.65,8.21-.84,7.94-2.52-.41-2.4-3.08-5.35-6.69-7.05s-6.41-7.39-6.41-7.39l-1.66-.06-9.93-.39-1.81-.2h0l-.28,0a2.67,2.67,0,0,0,0,.31C295.32,400.45,293.72,411.39,295.61,412.85Z" transform="translate(-110.13 -27.82)"/><path class="cls-13" d="M314.52,415.83c5.65.65,8.21-.84,7.94-2.52-.41-2.4-3.08-5.35-6.69-7.05s-6.41-7.39-6.41-7.39l-1.66-.06c1.34,2.81,4.29,7.89,9.27,10.74C322.61,412.78,318.93,415.77,314.52,415.83Z" transform="translate(-110.13 -27.82)"/><path class="cls-14" d="M295.61,412.85c1.12.86,3.82,1,6.08.93-4.41-.83-5.37-1.9-5.53-3.22a108,108,0,0,1,.46-11.33,6.46,6.46,0,0,1,1.28-2.59L296,398.22h0a2.38,2.38,0,0,0-.31.27C295.32,400.45,293.72,411.39,295.61,412.85Z" transform="translate(-110.13 -27.82)"/><path class="cls-12" d="M209.61,397.36c.35,1.42,2.37,3.33,4.16,4.8,1.51,1.27,2.86,2.19,2.86,2.19.86,1.42,1.7,2.71,2.52,3.85.33.49.66.94,1,1.36,0,0,0,0,0,.07.79,1,1.57,1.95,2.29,2.73,4,4.29,6.86,4.85,7.65,3.36,1.12-2.12.81-6.2-1-9.93-1.85-3.91-.54-10-.54-10l-1.25-1.16-7.46-7-1.28-1.37h0l-.19-.22a2.48,2.48,0,0,0-.21.22C216.8,387.57,209,395,209.61,397.36Z" transform="translate(-110.13 -27.82)"/><path class="cls-13" d="M222.47,412.36c4,4.29,6.86,4.85,7.65,3.36,1.12-2.12.81-6.2-1-9.93-1.85-3.91-.54-10-.54-10l-1.25-1.16c-.65,3.07-1.4,9,.75,14.53C230.56,415.42,225.92,415.27,222.47,412.36Z" transform="translate(-110.13 -27.82)"/><path class="cls-14" d="M209.61,397.36c.35,1.42,2.37,3.33,4.16,4.8-2.92-3.6-3-5.07-2.36-6.2a101.58,101.58,0,0,1,7.13-8.47,5.89,5.89,0,0,1,2.54-1.14l-2.45-.08h-.41C216.8,387.57,209,395,209.61,397.36Z" transform="translate(-110.13 -27.82)"/><path class="cls-15" d="M323.93,288.87c-.42,3-.86,6.13-1.33,9.23-7.11,46.94-12.21,99.28-12.69,101.29l0,.06-11.63-.39-2.52-.08s-7-52.16-2-75.06c.81-3.73-1.85-24.36-6.16-46.21-3.54-17.87-8.18-36.55-12.94-47.47l30.33-1.43,7.1-.34,7-.33a9.07,9.07,0,0,1,3.86,6.84c0,.22,0,.44,0,.66C323.29,247.21,326,274.06,323.93,288.87Z" transform="translate(-110.13 -27.82)"/><path class="cls-16" d="M298.26,399.06l-2.52-.08s-7-52.16-2-75.06c.81-3.73-1.85-24.36-6.16-46.21l5.9-12.14,7.67,55.25S294.33,375.34,298.26,399.06Z" transform="translate(-110.13 -27.82)"/><path class="cls-17" d="M303.79,233.89a.79.79,0,0,0,0,.14,1.41,1.41,0,0,1,0,.18c-.83,4.17-14.61,48.2-25.93,83.76-15.45,21.7-48.58,78.37-48.58,78.37l-1.76-1-12-7.05L215,388s15.28-47,32.39-76.05c7-11.83,4.19-55.38,11.25-78.05a3.58,3.58,0,0,1,.2-.49c2.32-4.61,15.63-4,27.29-2.53C295.55,232.1,303.79,233.89,303.79,233.89Z" transform="translate(-110.13 -27.82)"/><path class="cls-16" d="M284.83,242.81c-7.1-.83-20.12,6-22.14,10.29s-6.6,56.33-6.6,56.33c-7.35,4.64-36.33,69.27-40.59,78.84L215,388s15.28-47,32.39-76.05c7-11.83,4.19-55.38,11.25-78.05a3.58,3.58,0,0,1,.2-.49C271.48,237.44,289.54,243.35,284.83,242.81Z" transform="translate(-110.13 -27.82)"/><path class="cls-18" d="M316.92,161.34c.68-1.63,1.85-4.32,1.85-4.32l-13.2-21.25a168.11,168.11,0,0,0,22.87-3.24c2.64-.55,6.91-1.32,8.78-1.81,8.52,12.37,8.46,17.89,10.41,24.82-9.78,6.39-21.78,13.48-26.6,12.54C320.11,167.9,316.33,162.79,316.92,161.34Z" transform="translate(-110.13 -27.82)"/><path class="cls-19" d="M345.74,148.56c.48,1.75.9,3.47,1.43,5.34,4-2.6,12.66-10.91,14.77-13.68,7.38-9.75,12.64-28.89,15.53-43.26.14-.73.28-1.43.4-2.09-.52,2.12-8.41,33.48-18.85,44.07A63.47,63.47,0,0,1,345.74,148.56Z" transform="translate(-110.13 -27.82)"/><path class="cls-20" d="M256.11,238.39s0,.07,0,.12c.23,2.54.71,4.13,1.48,4.53a1.22,1.22,0,0,0,.34.12c4.1,1.15,28.11-2.35,36.4,1.22,8.54,3.69,25.48,1.68,29.13-1.17l.18-.16c1.14-1,1.24-2.76.79-5a.31.31,0,0,1,0-.08c-.11-.55-.25-1.13-.43-1.75l-.24-.87c0-.14-.09-.29-.14-.44-1.17-3.87-3-8.68-4.15-14-2-9.63-.77-17.55,1.05-24.91a1,1,0,0,1,0-.17L321,194c.08-.29.15-.59.24-.88.3-1.15.61-2.29.92-3.42l.27-1c.82-3.06,1.6-6.1,2.12-9.2.17-1,.32-2.07.43-3.12,0-.12,0-.24,0-.36a25.15,25.15,0,0,0-1.84-10,70.29,70.29,0,0,0-4.2-9.38c-.58-1.08-1.13-2.1-1.63-3.12h0a31.49,31.49,0,0,1-2.43-6.16c-1.06-4-.54-8.61.53-12.6l-4.68-.17-7.36-.26-2.64-.1a35.24,35.24,0,0,0-3.06,3.65,8.28,8.28,0,0,1-13.13.3c-1.74-2.15-3.33-3.47-4.07-3.49a52.61,52.61,0,0,0-6.46,1.52c-1.63.44-3.4.93-5.12,1.42-4.66,1.32-8.95,2.58-8.95,2.58a160.42,160.42,0,0,0-1.88,28.67q.06,2.19.21,4.41c.2,3,.5,6,1,8.9.15,1,.32,2,.51,2.93h0c.09.49.19,1,.3,1.45s.22,1,.33,1.47l0,.12h0c.22,1,.47,1.9.74,2.83.12.43.25.85.38,1.27s.33,1.11.48,1.66c.29,1.1.54,2.2.74,3.28a42.54,42.54,0,0,1,.59,4.65c.65,8.93-1.52,16.95-3.66,23.4h0C257.77,231.08,255.88,235.61,256.11,238.39Z" transform="translate(-110.13 -27.82)"/><path class="cls-21" d="M256.52,268c7.87.52,24.42,3.9,32.31,5.51a83.83,83.83,0,0,0,33.67,0c-.37-9.93.86-20.25,1.15-30.44,0-1.74.06-3.48,0-5.22h0c0-1,0-2-.08-2.93a68.26,68.26,0,0,0-1.49-12.21c-2-9.15-3.23-17.48-1.61-26.73a1,1,0,0,1,0-.17,20,20,0,0,1,.69-2.65c.34-1.12.76-2.28,1.19-3.46,1.25-3.48,2.52-7.1,2.12-10.15a17.52,17.52,0,0,0-2.38-7.58,34,34,0,0,0-2.78-3.77c-3.09-3.78-4.31-8.71-6-13.2a44.09,44.09,0,0,1-2.67-16.6,13.65,13.65,0,0,0,0-3.78,1.61,1.61,0,0,0-.48-.8,3.52,3.52,0,0,0-1.38-.35c-.45-.07-5.83-.17-5.55.71a1.21,1.21,0,0,1,0,.18,37.1,37.1,0,0,1,1.36,16.22c-.32,2.54-1.06,4.34-3.35,5.61a17.06,17.06,0,0,1-5.36,1.76c-3.82.65-8.35.57-11.76-1.49a6.78,6.78,0,0,1-3.16-4.07c-1.8-7.09-4.32-12.43-7.09-16.15l-.39-.52a.14.14,0,0,1,0-.06.05.05,0,0,1,0,0,.79.79,0,0,0-.91-.54l-3.78,1.38a.56.56,0,0,0-.14.61v0a.53.53,0,0,0,0,.16c0,.13.07.26.1.4,2,7.66,2.95,17.57,1.51,23.21S267.49,172.56,265,178a7.47,7.47,0,0,1-.8,1.11c-1.39,1.72-4.07,4.64-4.33,5.38a2.58,2.58,0,0,0-.13.6v0a6.87,6.87,0,0,0,.66,3h0c.13.35.26.69.36,1a12.34,12.34,0,0,1,.37,1.75s0,0,0,.06c.08.61.13,1.22.19,1.84v.06c.05.63.09,1.26.16,1.87a54.79,54.79,0,0,1,.28,13.11c-.73,5.8-1.45,11.59-2.1,17.38h0c-.68,5.95-1.29,11.9-1.76,17.88-.21,2.42-.38,4.86-.53,7.29C257.34,251.55,256.29,268,256.52,268Z" transform="translate(-110.13 -27.82)"/><path class="cls-22" d="M303.79,185.5c.3.4,7.48,4.5,10.7,4.59a46.61,46.61,0,0,0,7.67-.38l.27,0c1.25-3.48,2.52-7.1,2.12-10.15.17-1,.32-2.07.43-3.12,0-.12,0-.24,0-.36a25.15,25.15,0,0,0-1.84-10,70.29,70.29,0,0,0-4.2-9.38c-.58-1.08-1.13-2.1-1.63-3.12h0l-1-1.43c1.41,2.68,6,11.75,5.81,19.85a13.58,13.58,0,0,1-3,8.73C313.59,187.28,304.23,185.75,303.79,185.5Z" transform="translate(-110.13 -27.82)"/><path class="cls-22" d="M256.52,268c7.87.52,24.42,3.9,32.31,5.51a83.83,83.83,0,0,0,33.67,0c-.37-9.93.86-20.25,1.15-30.44,1.14-1,1.24-2.76.79-5a.31.31,0,0,1,0-.08c-.17-.69-.31-1.28-.43-1.75l-.24-.87a11.61,11.61,0,0,1-.06,2.49h0c-.35,1.31-1.78,2.07-7.11,2.44-8.08.57-27.76-4.94-38.93-12.13s-10-33-10-33a7.52,7.52,0,0,1,5.61-2.26c5.87-.13,10.4-5.82,9.53-6.53-5.83,3.56-15.2-.85-18.53-5.66v-1.56c0-9.71-.3-17.07-.2-17.83l-5.93,7.6c0,1.46.11,2.93.2,4.41.19,2.88.7,5.72.92,8.58a19,19,0,0,0,.55,3.25h0c.36,1.5.83,3,1.2,4.49a13.8,13.8,0,0,1,.39,3.23v.06c.05.63.09,1.26.16,1.87a54.79,54.79,0,0,1,.28,13.11c-.73,5.8-1.45,11.59-2.1,17.38h0c-.68,5.95-1.29,11.9-1.76,17.88-.21,2.42-.38,4.86-.53,7.29C257.34,251.55,256.29,268,256.52,268Z" transform="translate(-110.13 -27.82)"/><path class="cls-23" d="M229.06,175.72c1.13.34,2.23.74,3.3,1.17s2,.84,2.95,1.3a82.43,82.43,0,0,1,13,8.08c1.3,1,2.36,1.81,3.11,2.43s1.3,1.09,1.3,1.09c.16.14,3.57-3.2,3.79-3.41a17,17,0,0,0,4.25-5.33,31,31,0,0,0,1.75-6.16c.66-3.23,1.29-6.48,1.72-9.75a64.55,64.55,0,0,0,.57-6.66,43.64,43.64,0,0,0-.76-10c-.55-2.71-1.23-6.63-3.72-8.29C260.36,140.18,243.68,143.5,229.06,175.72Z" transform="translate(-110.13 -27.82)"/><path class="cls-19" d="M282.94,132.76a63.85,63.85,0,0,0,13.44-4.13,26.68,26.68,0,0,1,.45-3.87c-.55-.65-1.17-1.37-1.78-2.11-3.84-.94-8.68-1.86-12-2.82.71.2.73,7.56.7,8.51a12.07,12.07,0,0,1-.18,1.78A13.83,13.83,0,0,1,282.94,132.76Z" transform="translate(-110.13 -27.82)"/><path class="cls-24" d="M280.77,119.89a3.44,3.44,0,0,0,2.32.77c1.93,4.59,14.46,7.47,14.46,7.47l.46-.3c9.93-6.51,6.77-24.28,6.35-26.44a1.47,1.47,0,0,1-.05-.2l-11.17-4.57L283,107.6a24.84,24.84,0,0,0-2,4C279.8,114.4,279.55,119,280.77,119.89Z" transform="translate(-110.13 -27.82)"/><path class="cls-25" d="M298.81,122l-6.4-1.73s.8,3.18,2.86,3.68S298.81,122,298.81,122Z" transform="translate(-110.13 -27.82)"/><path class="cls-26" d="M296.17,111.17c.05-.35-1.35-1.53-3-1.42a6,6,0,0,0-3,1.27s2.85-1.1,4.05-.18C295.63,112,296.17,111.17,296.17,111.17Z" transform="translate(-110.13 -27.82)"/><path class="cls-26" d="M299.79,111.67a3.65,3.65,0,0,1,2.5-.45,3.26,3.26,0,0,1,2,1.44,3.84,3.84,0,0,0-2.78-.7C299.6,112.36,299.79,111.67,299.79,111.67Z" transform="translate(-110.13 -27.82)"/><path class="cls-27" d="M300.56,114.47c.07.73.4,1.3.73,1.27s.54-.66.46-1.4-.4-1.3-.73-1.27S300.48,113.73,300.56,114.47Z" transform="translate(-110.13 -27.82)"/><path class="cls-27" d="M292.33,113.3c.08.73.41,1.3.74,1.27s.54-.66.46-1.39-.4-1.31-.73-1.27S292.26,112.56,292.33,113.3Z" transform="translate(-110.13 -27.82)"/><path class="cls-26" d="M297.79,115.08s1.54,4.06,1.1,4.24a5.37,5.37,0,0,1-1.79-.06Z" transform="translate(-110.13 -27.82)"/><path class="cls-9" d="M307.52,110.89c-1.81,1.19-2.7,4.55-2.73,4.62-.07-.62,0-1.91-.06-2.53a26,26,0,0,1-.14-3.86c0-.34.09-.72.14-1.12.28-2.57.26-6.07-4.92-8.11-.4-.16-.83-.31-1.3-.45-1.62-.48-3.8-.52-5.09,2.06-1.07,2.13-2.59,5.9-4,7.85-.29.42-2,4.1-2.26,4.32-1.57,1.24-.78-1.74-1.85-2.54s-2.15-.36-2.61,1.56,1.23,4.87,3,5.27c0,0-2.94,2-2,3.77,0,5.53,0,7.51,0,7.51a83.43,83.43,0,0,0-5.86-10.44c-2.9-4.09-2.64-6.09-.6-10.68a33.3,33.3,0,0,1,4.07-6.9,15.15,15.15,0,0,1,7.49-5.52c5.62-1.58,9.6.35,10.52,1,0,0,4.69-1.44,8.05-.63,4,1,4.72,6.38,3.56,9.72C310.25,107.62,309.18,109.8,307.52,110.89Z" transform="translate(-110.13 -27.82)"/><path class="cls-28" d="M300.46,227.11c-1.25-2.13-2.8-5.39-5-6.64a24.55,24.55,0,0,0-6.42-2.22c-2-1.47-5.52-1.88-7.6-2.23a30.63,30.63,0,0,0-3.45-.45c-6.53-5.07-13.16-10.1-19.84-15a32.49,32.49,0,0,1-6.24-6,8.88,8.88,0,0,1,0-5.56,96.43,96.43,0,0,0-14.48-10,48.39,48.39,0,0,0-6.18-2.73,72.31,72.31,0,0,0-2.76,6.78c-1.19,3.25-2.82,9.66-1,12.61,7,11.38,18.43,15.85,30.68,20.47,4,1.52,7.79,3.41,13.25,5.32.54.19,1.6,1,2.14,1.24,3.12,1.28,4.34,5.42,7.95,5.92a6,6,0,0,0,2-.11A9.19,9.19,0,0,1,285,230a9.45,9.45,0,0,1,1.36,2.23,5.82,5.82,0,0,0,.81,1.66.67.67,0,0,0,1.17-.37,8.57,8.57,0,0,0-2.28-5.94l0,0a13.67,13.67,0,0,1,3.19,1.72,11,11,0,0,1,2.18,2.13,7,7,0,0,0,1.4,1.63.78.78,0,0,0,1.21-.75,10.14,10.14,0,0,0-5.33-6.65,7.65,7.65,0,0,0,.55-.6,16.76,16.76,0,0,1,2.61,1.21c2,1.26,2.71,3,3.94,4.91a.85.85,0,0,0,1.53-.27,7.37,7.37,0,0,0-3-6.64,19.76,19.76,0,0,0-3.7-2.16c0-.13,0-.26,0-.39a8.8,8.8,0,0,1,3.6,1.73c1.73,1.52,2.87,4.57,5.46,4.67C300.23,228.13,300.75,227.61,300.46,227.11Z" transform="translate(-110.13 -27.82)"/><path class="cls-5" d="M566.41,362.92l5,24.06a9.07,9.07,0,0,0,8.88,7.22h12.54a9.06,9.06,0,0,0,8.78-6.8l6.3-24.48Z" transform="translate(-110.13 -27.82)"/><ellipse class="cls-29" cx="477.03" cy="335.1" rx="20.75" ry="3.25"/><path class="cls-4" d="M579.58,344.72c-.4-.85-.77-1.71-1.13-2.58-1.6-3.86-3.26-7.67-5-11.48a83.89,83.89,0,0,1-4.38-11.49c-1.11-4-1.41-10.23-5.57-12.43-2.11-1.11-4.86-.16-6.64,1.88a11.83,11.83,0,0,0-2.49,8.48c.33,5.39,3,10,5.76,14.13A228.84,228.84,0,0,0,574.74,350l1.86,2.24,7.62,9.14c1.51,1.81,2,6,4.08,2.82s-.91-5.17-2-7.94a25.67,25.67,0,0,0-2.17-4.32c-1-1.51-2.18-2.86-3.1-4.43C580.49,346.58,580,345.65,579.58,344.72Z" transform="translate(-110.13 -27.82)"/><path class="cls-30" d="M587.78,361.59c-2.76-3.71-5.44-7.52-8-11.37s-5.13-7.75-7.53-11.73q-1.82-3-3.51-6c-1.13-2-2.22-4.08-3.23-6.17s-2-4.21-2.8-6.38a34,34,0,0,1-1.88-6.71,33.79,33.79,0,0,0,1.64,6.79c.74,2.22,1.64,4.37,2.58,6.51s2,4.24,3,6.32,2.16,4.13,3.3,6.17c2.27,4.08,4.67,8.09,7.14,12.05s5,7.86,7.69,11.72Z" transform="translate(-110.13 -27.82)"/><path class="cls-4" d="M597.32,347.18c.38-.84.79-1.66,1.21-2.48,1.87-3.65,3.67-7.32,5.44-11a83,83,0,0,1,5.81-10.59c2.3-3.39,6.76-7.56,5.75-12.08-.51-2.29-3-3.75-5.63-3.77a11.54,11.54,0,0,0-7.92,3.54c-3.82,3.67-5.58,8.54-6.91,13.29a227.76,227.76,0,0,0-4.76,22.82l-.49,2.83-2,11.51c-.39,2.28-3.23,5.3.49,4.85s3.29-4,4.65-6.57a24.74,24.74,0,0,0,1.86-4.37c.5-1.69.75-3.45,1.34-5.14C596.51,349.05,596.9,348.11,597.32,347.18Z" transform="translate(-110.13 -27.82)"/><path class="cls-31" d="M589.92,364.06c1-4.43,2.17-8.86,3.38-13.26s2.54-8.77,4-13.1q1.08-3.26,2.28-6.46t2.56-6.35c.92-2.09,1.88-4.16,3-6.15a34,34,0,0,1,3.82-5.68,33.31,33.31,0,0,0-4,5.55c-1.19,2-2.23,4-3.23,6.07s-1.93,4.17-2.8,6.29-1.72,4.25-2.52,6.4c-1.61,4.29-3.08,8.64-4.47,13s-2.69,8.76-3.89,13.21Z" transform="translate(-110.13 -27.82)"/><path class="cls-32" d="M590.58,338.73c.09-1.19.22-2.38.36-3.56.66-5.29,1.22-10.56,1.74-15.84a107.7,107.7,0,0,1,2.37-15.49c1.3-5.16,4.88-12.23,1.64-17.29-1.64-2.56-5.28-3.24-8.54-2.09-3.82,1.36-6.49,4.57-8.09,7.84-3,6.18-3,12.89-2.5,19.28a293.49,293.49,0,0,0,4.35,29.93l.66,3.66,2.69,14.91c.53,3,.46,6.1,2.75,5.7,5-.86,2.24-6.29,2.75-10.07.27-2-.29-3.89-.41-5.92-.14-2.3.11-4.77.08-7.1Q590.42,340.71,590.58,338.73Z" transform="translate(-110.13 -27.82)"/><path class="cls-33" d="M588.2,363.63c-.73-5.86-.44-12.8-.91-18.7s-.82-11.82-1-17.74q-.13-4.44-.1-8.88c0-3,.11-5.92.3-8.88s.45-5.91.91-8.83a43.31,43.31,0,0,1,2.14-8.62,43.86,43.86,0,0,0-2.46,8.56c-.57,2.92-.94,5.88-1.23,8.84s-.5,5.93-.62,8.9-.21,6-.23,8.92c0,5.95.09,11.9.34,17.85a79.08,79.08,0,0,0,2.12,16.35Z" transform="translate(-110.13 -27.82)"/><path class="cls-5" d="M158.09,362.92l5,24.06A9.06,9.06,0,0,0,172,394.2h12.53a9.08,9.08,0,0,0,8.79-6.8l6.3-24.48Z" transform="translate(-110.13 -27.82)"/><ellipse class="cls-29" cx="68.71" cy="335.1" rx="20.75" ry="3.25"/><path class="cls-4" d="M171.26,344.72c-.4-.85-.77-1.71-1.13-2.58-1.6-3.86-3.26-7.67-4.95-11.48a82.56,82.56,0,0,1-4.37-11.49c-1.12-4-1.41-10.23-5.58-12.43-2.11-1.11-4.86-.16-6.64,1.88a11.78,11.78,0,0,0-2.48,8.48c.33,5.39,2.95,10,5.75,14.13A233.32,233.32,0,0,0,166.42,350l1.87,2.24,7.61,9.14c1.51,1.81,2,6,4.08,2.82s-.9-5.17-2-7.94a24.94,24.94,0,0,0-2.17-4.32c-1-1.51-2.18-2.86-3.09-4.43C172.17,346.58,171.7,345.65,171.26,344.72Z" transform="translate(-110.13 -27.82)"/><path class="cls-34" d="M179.46,361.59c-2.76-3.71-5.44-7.52-8-11.37s-5.14-7.75-7.54-11.73q-1.81-3-3.51-6c-1.13-2-2.21-4.08-3.23-6.17s-2-4.21-2.8-6.38a34.65,34.65,0,0,1-1.88-6.71A34.48,34.48,0,0,0,154.1,320c.74,2.22,1.64,4.37,2.58,6.51s2,4.24,3,6.32S161.87,337,163,339q3.41,6.12,7.14,12.05c2.48,4,5,7.86,7.68,11.72Z" transform="translate(-110.13 -27.82)"/><path class="cls-4" d="M189,347.18c.38-.84.79-1.66,1.2-2.48,1.88-3.65,3.67-7.32,5.44-11a81.86,81.86,0,0,1,5.82-10.59c2.29-3.39,6.75-7.56,5.75-12.08-.51-2.29-3-3.75-5.63-3.77a11.54,11.54,0,0,0-7.93,3.54c-3.82,3.67-5.58,8.54-6.91,13.29A230.59,230.59,0,0,0,182,346.9l-.48,2.83-2,11.51c-.39,2.28-3.22,5.3.49,4.85,3.86-.48,3.29-4,4.65-6.57a24.74,24.74,0,0,0,1.86-4.37c.5-1.69.75-3.45,1.35-5.14A30,30,0,0,1,189,347.18Z" transform="translate(-110.13 -27.82)"/><path class="cls-35" d="M181.6,364.06c1-4.43,2.17-8.86,3.39-13.26s2.53-8.77,4-13.1q1.08-3.26,2.28-6.46c.8-2.14,1.64-4.26,2.56-6.35s1.89-4.16,3-6.15a33.46,33.46,0,0,1,3.83-5.68,33.37,33.37,0,0,0-4,5.55c-1.18,2-2.23,4-3.23,6.07s-1.92,4.17-2.8,6.29-1.72,4.25-2.52,6.4c-1.61,4.29-3.08,8.64-4.47,13s-2.69,8.76-3.88,13.21Z" transform="translate(-110.13 -27.82)"/><path class="cls-32" d="M182.26,338.73c.09-1.19.22-2.38.37-3.56.65-5.29,1.21-10.56,1.73-15.84a106.34,106.34,0,0,1,2.38-15.49c1.29-5.16,4.87-12.23,1.63-17.29-1.63-2.56-5.28-3.24-8.54-2.09-3.82,1.36-6.49,4.57-8.09,7.84-3,6.18-3,12.89-2.5,19.28a293.49,293.49,0,0,0,4.35,29.93l.66,3.66,2.69,14.91c.53,3,.47,6.1,2.75,5.7,5-.86,2.25-6.29,2.75-10.07.27-2-.29-3.89-.41-5.92-.14-2.3.11-4.77.09-7.1C182.1,341.37,182.16,340.05,182.26,338.73Z" transform="translate(-110.13 -27.82)"/><path class="cls-36" d="M179.88,363.63c-.73-5.86-.44-12.8-.91-18.7s-.81-11.82-1-17.74q-.13-4.44-.1-8.88c0-3,.11-5.92.3-8.88s.45-5.91.91-8.83a44,44,0,0,1,2.14-8.62,43.84,43.84,0,0,0-2.45,8.56c-.57,2.92-.94,5.88-1.24,8.84s-.49,5.93-.62,8.9-.21,6-.23,8.92c0,5.95.09,11.9.34,17.85a79.77,79.77,0,0,0,2.12,16.35Z" transform="translate(-110.13 -27.82)"/><path d="M457.36,97s-9.18,9.26-6.64,20.42c4.09,18-7.55,18.12-7.55,18.12s-13.32,16.7-12.44,17.13,44.26-2.4,44.26-2.4,24.23,3.07,23.7,1.5S488.24,133,487.79,130s-2.29-9.11-1.71-11.36-5.64-15.77-5.64-15.77Z" transform="translate(-110.13 -27.82)"/><path class="cls-37" d="M484.32,147.3c-1.37,5.18-6.82,12.66-12.74,13.76s-8.11-8.85-9.38-9.12-8.65-6.85-6.36-11.12c.72-1.35,4-2.3,4.83-4,.17-.36.34-.72.49-1.08,4.08-9.27,3.93-20.14,3.93-20.14,1.78.76,8.48,5.09,11.68,7.19l1.72,1.12c0,.17-.26.28-.62.37-.62.15-1.5.25-1.51.57a18.88,18.88,0,0,0,1,6.41c.69,2.22,1.52,4.05,1.71,4.85,1.35,5.49,3.86,4.74,3.86,4.74S485.68,142.11,484.32,147.3Z" transform="translate(-110.13 -27.82)"/><path class="cls-19" d="M477.38,131.25c-2.79,1.54-7.7,3.34-16.22,4.48,4.08-9.27,3.93-20.14,3.93-20.14,1.78.76,8.48,5.09,11.68,7.19l1.1,1.49c-.62.15-1.5.25-1.51.57A18.88,18.88,0,0,0,477.38,131.25Z" transform="translate(-110.13 -27.82)"/><path class="cls-38" d="M459.79,115.76s.4,8.46,7.47,13.14,15.38-7.36,15.88-10.41a7.15,7.15,0,0,0,2.29-1.37c.85-.93.9-5.33-.06-5.68a4.17,4.17,0,0,0-2.21,0l-1.58-6-13.06-4.78L462.88,104l-1.78,3.55-.37.08a4,4,0,0,0-3,2.9c-.34,1.35-.54,2.93,0,3.84C458.81,116.2,459.79,115.76,459.79,115.76Z" transform="translate(-110.13 -27.82)"/><path d="M459.11,109s1.82-.67,2,1.65.27,2.89.89,2a22.16,22.16,0,0,0,3.95-8c.15-.5,8.05,5.85,15.32,3a14.35,14.35,0,0,0,5.41-3.46c1.24-1.25,3.68-4.15.79-8.4s-9.8-3.86-14.34-6.78c-2-1.28-6.47-3-9.49-1.73-1.48.61-5.11,3.37-4.85,6.93,0,0-5,5.13-6.12,9.53-.62,2.48,1.56,6.28,2.74,8.06a23.27,23.27,0,0,0,2.89,3.41s-1.44-3.12-.65-4.67S459.11,109,459.11,109Z" transform="translate(-110.13 -27.82)"/><path d="M479.88,106.63s3.35,7.85,4,6.84c1.44-2.14,2.62-.89,2.17,1.21a6.56,6.56,0,0,1-1.18,2.88A6.13,6.13,0,0,0,482.1,121c-.73,2.36-.74,1.2-.74,1.2a44.15,44.15,0,0,1,3.54-2.69c1.45-.92,2.57-3.32,3.25-4.64s1.67-6.33,1.27-7.87-2.53-4.88-2.13-6.92c.06-.3-.27-.66-1.39,0S479.88,106.63,479.88,106.63Z" transform="translate(-110.13 -27.82)"/><path d="M469,111.08c.11-.41-.28-1.22-2.23-1.34A7.2,7.2,0,0,0,463,110.8a11.69,11.69,0,0,1,4-.12C468.72,111,469,111.08,469,111.08Z" transform="translate(-110.13 -27.82)"/><path d="M475,111.08c-.12-.41.28-1.22,2.22-1.34A7.21,7.21,0,0,1,481,110.8a11.69,11.69,0,0,0-4-.12C475.21,111,475,111.08,475,111.08Z" transform="translate(-110.13 -27.82)"/><path class="cls-27" d="M477,114.29c0,.87.4,1.57.79,1.55s.68-.75.63-1.62-.39-1.57-.79-1.56S477,113.41,477,114.29Z" transform="translate(-110.13 -27.82)"/><path class="cls-27" d="M466,113.88c0,.87.25,1.6.64,1.62s.75-.68.79-1.55-.25-1.61-.64-1.62S466,113,466,113.88Z" transform="translate(-110.13 -27.82)"/><path class="cls-26" d="M471.61,114.85s2,4.76,1.48,5a6.47,6.47,0,0,1-2.14,0Z" transform="translate(-110.13 -27.82)"/><path class="cls-2" d="M468.57,123.65l7.49-.41s-.58,1.9-3.74,2.79C470.5,126.54,468.57,123.65,468.57,123.65Z" transform="translate(-110.13 -27.82)"/><path class="cls-39" d="M543,258.68c-1.22.52-6.93.62-6.93.62l-3.9-10.19s-3.09,6.95-3.77,2.44,1.61-11.68,1.6-11.71l0-.11a.59.59,0,0,1-.07-.16c-1.16-3.35-7.67-25.14-11-32.49-3.13-7-4.94-11.81-5.92-13-1.19-1.92-2.58-3.86-3.7-5.35s-2-2.59-2-2.61l3.76-2.45.07,0,16.07-10.45,1.22,3.75,1.75,5.4a122.39,122.39,0,0,1,3,14.49c1.74,11.8,3.85,21.57,5,28.87a102.7,102.7,0,0,0,2.14,10.87c0,.06,4,10.32,5,11.34S544.21,258.16,543,258.68Z" transform="translate(-110.13 -27.82)"/><path class="cls-40" d="M407.46,122.77s-12-19.73-17.54-37.27c0,0,3.34-16,2.18-16.57-.47-.21-.84.64-1.14,1.74-.16,2.35-.52,4.72-.53,4.75a.24.24,0,0,1-.25.22h0a.26.26,0,0,1-.22-.3s.15-1,.29-2.28c-.13-2.78-.52-8.19-1.78-8.21-1.69,0-1,6.83-1,6.83s0-.15-.07-.42c.16,1.75.32,3.15.33,3.18a.27.27,0,0,1-.23.29h0a.26.26,0,0,1-.26-.23c0-.23-.51-4.46-.71-7.44h0c-.76-3.34-1.81-7.26-2.57-7.26-.57,0-.58,1.74-.42,3.67v0A81.5,81.5,0,0,1,385,73.67a.28.28,0,0,1-.25.28h0a.27.27,0,0,1-.27-.24s-.37-4.32-1.15-8.19a.19.19,0,0,0,0-.07c-.66-2.39-1.62-5.31-2.38-5.39-1.31-.12-.67,4.85-.55,8s.44,8.75-.47,9.67-4.18-3.53-5.5-2.74c-.09,0-.13.18-.13.36.06,2.18,7.22,12.84,7.22,12.84s.55,2.33,1.37,6.61v0s0,0,0,.07c.12.66.26,1.36.41,2.09,2.88,14.37,8.14,33.51,15.52,43.26C401,143,409.66,151.3,413.63,153.9c.52-1.87.94-3.59,1.42-5.34,1.28-4.76,2.66-8.07,7.93-16.85A99.88,99.88,0,0,1,407.46,122.77Z" transform="translate(-110.13 -27.82)"/><path class="cls-12" d="M465.19,412.85c-1.12.86-3.83,1-6.09.93-1.93,0-3.52-.23-3.52-.23-1.52.52-2.94,1-4.26,1.29-.54.16-1.07.29-1.58.39,0,0-.05,0-.06,0a32.28,32.28,0,0,1-3.41.57c-5.65.65-8.21-.84-7.93-2.52.4-2.4,3.08-5.35,6.68-7.05,3.76-1.78,6.41-7.39,6.41-7.39l1.66-.06,9.93-.39,1.82-.2h0l.28,0a2.67,2.67,0,0,1,0,.31C465.48,400.45,467.07,411.39,465.19,412.85Z" transform="translate(-110.13 -27.82)"/><path class="cls-13" d="M446.27,415.83c-5.65.65-8.21-.84-7.93-2.52.4-2.4,3.08-5.35,6.68-7.05,3.76-1.78,6.41-7.39,6.41-7.39l1.66-.06c-1.34,2.81-4.29,7.89-9.26,10.74C438.18,412.78,441.86,415.77,446.27,415.83Z" transform="translate(-110.13 -27.82)"/><path class="cls-14" d="M465.19,412.85c-1.12.86-3.83,1-6.09.93,4.41-.83,5.37-1.9,5.54-3.22a111.2,111.2,0,0,0-.47-11.33,6.46,6.46,0,0,0-1.28-2.59l1.95,1.58h0a2.38,2.38,0,0,1,.31.27C465.48,400.45,467.07,411.39,465.19,412.85Z" transform="translate(-110.13 -27.82)"/><path class="cls-12" d="M551.18,397.36c-.35,1.42-2.37,3.33-4.16,4.8-1.51,1.27-2.86,2.19-2.86,2.19-.86,1.42-1.7,2.71-2.52,3.85-.33.49-.66.94-1,1.36,0,0,0,0,0,.07a34.88,34.88,0,0,1-2.29,2.73c-4,4.29-6.85,4.85-7.65,3.36-1.12-2.12-.81-6.2,1-9.93,1.85-3.91.54-10,.54-10l1.26-1.16,7.45-7,1.28-1.37h0l.19-.22s.09.08.22.22C544,387.57,551.76,395,551.18,397.36Z" transform="translate(-110.13 -27.82)"/><path class="cls-13" d="M538.32,412.36c-4,4.29-6.85,4.85-7.65,3.36-1.12-2.12-.81-6.2,1-9.93,1.85-3.91.54-10,.54-10l1.26-1.16c.64,3.07,1.39,9-.75,14.53C530.23,415.42,534.87,415.27,538.32,412.36Z" transform="translate(-110.13 -27.82)"/><path class="cls-14" d="M551.18,397.36c-.35,1.42-2.37,3.33-4.16,4.8,2.92-3.6,3-5.07,2.37-6.2a103.94,103.94,0,0,0-7.14-8.47,5.87,5.87,0,0,0-2.53-1.14l2.44-.08h.42C544,387.57,551.76,395,551.18,397.36Z" transform="translate(-110.13 -27.82)"/><path class="cls-41" d="M436.86,288.87c.42,3,.86,6.13,1.34,9.23,7.1,46.94,12.2,99.28,12.68,101.29a.32.32,0,0,0,0,.06l11.63-.39,2.52-.08s7-52.16,2-75.06c-.81-3.73,1.85-24.36,6.16-46.21,3.54-17.87,8.19-36.55,12.94-47.47l-30.32-1.43-7.11-.34-7-.33a9,9,0,0,0-3.86,6.84c0,.22,0,.44,0,.66C437.5,247.21,434.84,274.06,436.86,288.87Z" transform="translate(-110.13 -27.82)"/><path class="cls-16" d="M462.53,399.06l2.52-.08s7-52.16,2-75.06c-.81-3.73,1.85-24.36,6.16-46.21l-5.9-12.14-7.66,55.25S466.47,375.34,462.53,399.06Z" transform="translate(-110.13 -27.82)"/><path class="cls-42" d="M457,233.89a.79.79,0,0,1,0,.14l0,.18c.82,4.17,14.6,48.2,25.93,83.76,15.44,21.7,48.57,78.37,48.57,78.37l1.76-1,12-7.05.53-.28s-15.27-47-32.39-76.05c-7-11.83-4.19-55.38-11.25-78.05a2.65,2.65,0,0,0-.2-.49c-2.32-4.61-15.63-4-27.28-2.53C465.24,232.1,457,233.89,457,233.89Z" transform="translate(-110.13 -27.82)"/><path class="cls-16" d="M476,242.81c7.1-.83,20.12,6,22.14,10.29s6.6,56.33,6.6,56.33c7.35,4.64,36.33,69.27,40.59,78.84l.53-.28s-15.27-47-32.39-76.05c-7-11.83-4.19-55.38-11.25-78.05a2.65,2.65,0,0,0-.2-.49C489.31,237.44,471.25,243.35,476,242.81Z" transform="translate(-110.13 -27.82)"/><path class="cls-43" d="M443.87,161.34C443.19,159.71,442,157,442,157l13.2-21.25a168.11,168.11,0,0,1-22.87-3.24c-2.64-.55-6.9-1.32-8.78-1.81-8.52,12.37-8.46,17.89-10.4,24.82,9.77,6.39,21.77,13.48,26.6,12.54C440.68,167.9,444.46,162.79,443.87,161.34Z" transform="translate(-110.13 -27.82)"/><path class="cls-19" d="M415.05,148.56c-.48,1.75-.9,3.47-1.42,5.34-4-2.6-12.67-10.91-14.78-13.68-7.38-9.75-12.64-28.89-15.52-43.26-.15-.73-.29-1.43-.41-2.09.53,2.12,8.42,33.48,18.86,44.07A63.14,63.14,0,0,0,415.05,148.56Z" transform="translate(-110.13 -27.82)"/><path class="cls-44" d="M504.68,238.39s0,.07,0,.12c-.23,2.54-.71,4.13-1.48,4.53a1.22,1.22,0,0,1-.34.12c-4.1,1.15-28.11-2.35-36.4,1.22-8.54,3.69-25.48,1.68-29.13-1.17l-.18-.16c-1.14-1-1.24-2.76-.79-5a.31.31,0,0,0,0-.08c.11-.55.25-1.13.43-1.75l.24-.87c0-.14.09-.29.14-.44,1.17-3.87,3-8.68,4.15-14,2-9.63.77-17.55-1.05-24.91a1,1,0,0,0,0-.17l-.45-1.77c-.08-.29-.15-.59-.24-.88-.3-1.15-.61-2.29-.92-3.42l-.27-1c-.82-3.06-1.6-6.1-2.12-9.2-.17-1-.32-2.07-.43-3.12,0-.12,0-.24,0-.36a25.15,25.15,0,0,1,1.84-10,70.29,70.29,0,0,1,4.2-9.38c.58-1.08,1.13-2.1,1.63-3.12h0a31.49,31.49,0,0,0,2.43-6.16c1.06-4,.54-8.61-.53-12.6l4.68-.17,7.36-.26,2.64-.1a35.24,35.24,0,0,1,3.06,3.65,8.28,8.28,0,0,0,13.13.3c1.74-2.15,3.33-3.47,4.07-3.49a52.61,52.61,0,0,1,6.46,1.52c1.63.44,3.4.93,5.12,1.42,4.66,1.32,8.95,2.58,8.95,2.58a160.42,160.42,0,0,1,1.88,28.67q-.06,2.19-.21,4.41c-.2,3-.5,6-1,8.9-.15,1-.32,2-.51,2.93h0c-.09.49-.19,1-.3,1.45s-.22,1-.33,1.47l0,.12h0c-.22,1-.47,1.9-.74,2.83-.12.43-.25.85-.38,1.27s-.33,1.11-.48,1.66c-.29,1.1-.54,2.2-.74,3.28a42.54,42.54,0,0,0-.59,4.65c-.65,8.93,1.52,16.95,3.66,23.4h0C503,231.08,504.91,235.61,504.68,238.39Z" transform="translate(-110.13 -27.82)"/><path class="cls-21" d="M504.27,268c-7.87.52-24.42,3.9-32.31,5.51a83.83,83.83,0,0,1-33.67,0c.37-9.93-.86-20.25-1.15-30.44,0-1.74-.06-3.48,0-5.22h0c0-1,0-2,.08-2.93a68.26,68.26,0,0,1,1.49-12.21c2-9.15,3.23-17.48,1.61-26.73a1,1,0,0,0,0-.17,20,20,0,0,0-.69-2.65c-.34-1.12-.76-2.28-1.19-3.46-1.25-3.48-2.52-7.1-2.12-10.15a17.52,17.52,0,0,1,2.38-7.58,34,34,0,0,1,2.78-3.77c3.09-3.78,4.31-8.71,6-13.2a44.09,44.09,0,0,0,2.67-16.6,13.65,13.65,0,0,1,0-3.78,1.61,1.61,0,0,1,.48-.8,3.52,3.52,0,0,1,1.38-.35c.45-.07,5.83-.17,5.55.71a1.21,1.21,0,0,0-.05.18A37.1,37.1,0,0,0,456,150.55c.32,2.54,1.06,4.34,3.35,5.61a17.06,17.06,0,0,0,5.36,1.76c3.82.65,8.35.57,11.76-1.49a6.78,6.78,0,0,0,3.16-4.07c1.8-7.09,4.32-12.43,7.09-16.15l.39-.52a.14.14,0,0,0,0-.06.05.05,0,0,0,0,0,.79.79,0,0,1,.91-.54l3.78,1.38a.56.56,0,0,1,.14.61v0a.53.53,0,0,1,0,.16c0,.13-.07.26-.1.4-2,7.66-2.95,17.57-1.51,23.21s2.94,11.72,5.4,17.16a7.47,7.47,0,0,0,.8,1.11c1.39,1.72,4.07,4.64,4.33,5.38a2.58,2.58,0,0,1,.13.6v0a6.87,6.87,0,0,1-.66,3h0c-.13.35-.26.69-.36,1a12.34,12.34,0,0,0-.37,1.75s0,0,0,.06c-.08.61-.13,1.22-.19,1.84v.06c-.05.63-.09,1.26-.16,1.87a54.79,54.79,0,0,0-.28,13.11c.73,5.8,1.45,11.59,2.1,17.38h0c.68,5.95,1.29,11.9,1.76,17.88.21,2.42.38,4.86.53,7.29C503.45,251.55,504.5,268,504.27,268Z" transform="translate(-110.13 -27.82)"/><path class="cls-22" d="M457,185.5c-.3.4-7.48,4.5-10.7,4.59a46.61,46.61,0,0,1-7.67-.38l-.27,0c-1.25-3.48-2.52-7.1-2.12-10.15-.17-1-.32-2.07-.43-3.12,0-.12,0-.24,0-.36a25.15,25.15,0,0,1,1.84-10,70.29,70.29,0,0,1,4.2-9.38c.58-1.08,1.13-2.1,1.63-3.12h0l1-1.43c-1.41,2.68-6,11.75-5.81,19.85a13.58,13.58,0,0,0,3,8.73C447.2,187.28,456.56,185.75,457,185.5Z" transform="translate(-110.13 -27.82)"/><path class="cls-22" d="M504.27,268c-7.87.52-24.42,3.9-32.31,5.51a83.83,83.83,0,0,1-33.67,0c.37-9.93-.86-20.25-1.15-30.44-1.14-1-1.24-2.76-.79-5a.31.31,0,0,0,0-.08c.17-.69.31-1.28.43-1.75l.24-.87a11.61,11.61,0,0,0,.06,2.49h0c.35,1.31,1.78,2.07,7.11,2.44,8.08.57,27.76-4.94,38.93-12.13s10-33,10-33a7.52,7.52,0,0,0-5.61-2.26c-5.87-.13-10.4-5.82-9.53-6.53,5.83,3.56,15.2-.85,18.53-5.66v-1.56c0-9.71.3-17.07.2-17.83l5.93,7.6c0,1.46-.11,2.93-.2,4.41-.19,2.88-.7,5.72-.92,8.58a19,19,0,0,1-.55,3.25h0c-.36,1.5-.83,3-1.2,4.49a13.8,13.8,0,0,0-.39,3.23v.06c-.05.63-.09,1.26-.16,1.87a54.79,54.79,0,0,0-.28,13.11c.73,5.8,1.45,11.59,2.1,17.38h0c.68,5.95,1.29,11.9,1.76,17.88.21,2.42.38,4.86.53,7.29C503.45,251.55,504.5,268,504.27,268Z" transform="translate(-110.13 -27.82)"/><path class="cls-45" d="M531.73,175.72c-1.13.34-2.23.74-3.3,1.17s-2,.84-2.95,1.3a82.43,82.43,0,0,0-13,8.08c-1.3,1-2.36,1.81-3.11,2.43s-1.3,1.09-1.3,1.09c-.16.14-3.57-3.2-3.79-3.41a17,17,0,0,1-4.25-5.33,31,31,0,0,1-1.75-6.16c-.66-3.23-1.29-6.48-1.72-9.75a64.55,64.55,0,0,1-.57-6.66,43.64,43.64,0,0,1,.76-10c.55-2.71,1.23-6.63,3.72-8.29C500.43,140.18,517.11,143.5,531.73,175.72Z" transform="translate(-110.13 -27.82)"/><path class="cls-19" d="M530,239.73a.59.59,0,0,1-.07-.16c-1.16-3.35-7.67-25.14-11-32.49-3.13-7-4.94-11.81-5.92-13-1.19-1.92-2.58-3.86-3.7-5.35-.83.68-1.3,1.09-1.3,1.09-.16.14-3.57-3.2-3.79-3.41a17,17,0,0,1-4.25-5.33,31,31,0,0,1-1.75-6.16c-.66-3.23-1.29-6.48-1.72-9.75a80.8,80.8,0,0,1,14.55,18.5c.48.86.94,1.73,1.37,2.63s.88,1.88,1.28,2.85c0,0,2.9,6.88,3.3,8.11C522.34,213.7,525.59,223,530,239.73Z" transform="translate(-110.13 -27.82)"/></g></g></svg>